<?xml version="1.0" standalone="no"?>
<!DOCTYPE svg PUBLIC "-//W3C//DTD SVG 20010904//EN"
 "http://www.w3.org/TR/2001/REC-SVG-20010904/DTD/svg10.dtd">
<svg version="1.0" xmlns="http://www.w3.org/2000/svg"
 width="452.000000pt" height="452.000000pt" viewBox="0 0 452.000000 452.000000"
 preserveAspectRatio="xMidYMid meet">

<g transform="translate(0.000000,452.000000) scale(0.100000,-0.100000)"
fill="#000000" stroke="none">
<path d="M2055 4330 c-415 -47 -786 -201 -1106 -458 -88 -71 -266 -253 -330
-337 -84 -109 -170 -248 -225 -361 -350 -721 -265 -1547 225 -2189 64 -84 242
-266 330 -337 627 -505 1471 -609 2194 -269 545 255 964 753 1121 1333 177
650 33 1333 -391 1858 -34 41 -110 123 -169 181 -314 305 -700 497 -1132 565
-118 18 -408 26 -517 14z m376 -180 c836 -81 1511 -680 1684 -1493 116 -545
-9 -1102 -349 -1552 -77 -103 -248 -274 -353 -353 -600 -454 -1400 -516 -2054
-161 -494 269 -838 727 -954 1272 -143 672 88 1373 602 1822 392 343 917 514
1424 465z"/>
<path d="M1470 2685 c-380 -380 -385 -385 -385 -425 0 -40 5 -45 385 -425 366
-366 387 -385 422 -385 50 0 66 8 83 41 34 65 36 62 -282 381 l-298 298 990 0
c1095 0 1022 -4 1045 64 9 28 8 40 -5 65 -8 17 -24 35 -34 41 -13 7 -349 10
-1008 10 l-988 0 298 298 c284 285 297 299 297 335 0 54 -35 87 -92 87 l-42 0
-386 -385z"/>
</g>
</svg>
